<svg width="183" height="29" viewBox="0 0 183 29" fill="none" xmlns="http://www.w3.org/2000/svg">
<path d="M12.7344 2.40625L15.1777 20.1602L23.7559 2.40625H31.7715L27.3418 28H21.2949L22.3848 21.7246L24.9863 10.1582L16.0215 28H12.0312L9.13086 9.49023L7.51367 22.3223L6.51172 28H0.5L4.92969 2.40625H12.7344ZM37.1328 28H31.332L36.0078 1H41.8086L37.1328 28ZM46.9062 28H41.1055L45.7812 1H51.582L46.9062 28ZM62.3398 25.9258C60.9219 27.6016 59.2109 28.416 57.207 28.3691C55.3438 28.3457 53.9375 27.6953 52.9883 26.418C52.0508 25.1406 51.6875 23.4297 51.8984 21.2852L53.9551 8.98047H59.7383L57.6465 21.3555C57.6113 21.6953 57.6113 22.0059 57.6465 22.2871C57.7285 23.248 58.2969 23.7461 59.3516 23.7812C60.5703 23.8281 61.6074 23.3477 62.4629 22.3398L64.8184 8.98047H70.6367L67.332 28H61.9531L62.3398 25.9258ZM76.543 28H70.7422L74.0469 8.98047H79.8477L76.543 28ZM74.5566 4.18164C74.5332 3.32617 74.832 2.61133 75.4531 2.03711C76.0859 1.46289 76.8477 1.17578 77.7383 1.17578C78.6406 1.17578 79.3906 1.43359 79.9883 1.94922C80.5977 2.46484 80.9141 3.13867 80.9375 3.9707C80.9609 4.83789 80.6621 5.55859 80.041 6.13281C79.4199 6.69531 78.6582 6.97656 77.7559 6.97656C76.877 6.97656 76.127 6.72461 75.5059 6.2207C74.8965 5.70508 74.5801 5.02539 74.5566 4.18164ZM87.8984 23.3945L96.2305 23.4297L95.4395 28H79.7246L80.3398 24.4492L90.3418 13.5859L82.5898 13.5508L83.3809 8.98047H98.5508L97.9531 12.4434L87.8984 23.3945ZM120.066 19.2812C119.914 21.0742 119.322 22.668 118.291 24.0625C117.271 25.457 115.924 26.5293 114.248 27.2793C112.584 28.0293 110.779 28.3867 108.834 28.3516C106.162 28.293 104.059 27.4316 102.523 25.7676C100.988 24.1035 100.15 21.8477 100.01 19C99.9043 17.1016 100.109 15.0332 100.625 12.7949C101.152 10.5566 102.002 8.61133 103.174 6.95898C104.357 5.29492 105.746 4.05273 107.34 3.23242C108.945 2.40039 110.697 2.00195 112.596 2.03711C115.385 2.08398 117.588 2.92187 119.205 4.55078C120.834 6.17969 121.719 8.42383 121.859 11.2832L115.865 11.2656C115.889 9.70703 115.607 8.59375 115.021 7.92578C114.436 7.25781 113.51 6.90039 112.244 6.85352C109.08 6.74805 107.152 9.20898 106.461 14.2363C106.145 16.5098 105.986 18.1328 105.986 19.1055C105.928 21.9883 106.994 23.4707 109.186 23.5527C110.604 23.5996 111.734 23.2539 112.578 22.5156C113.422 21.7656 113.961 20.7109 114.195 19.3516L120.066 19.2812ZM132.547 8.62891C134.246 8.65234 135.717 9.08008 136.959 9.91211C138.201 10.7324 139.109 11.8809 139.684 13.3574C140.27 14.834 140.48 16.4746 140.316 18.2793L140.281 18.666C139.953 21.584 138.869 23.9395 137.029 25.7324C135.189 27.5254 132.916 28.3984 130.209 28.3516C128.521 28.3281 127.062 27.9121 125.832 27.1035C124.602 26.2832 123.688 25.1406 123.09 23.6758C122.504 22.2109 122.293 20.582 122.457 18.7891C122.75 15.6719 123.816 13.1875 125.656 11.3359C127.508 9.48438 129.805 8.58203 132.547 8.62891ZM128.24 18.7891L128.188 19.8262C128.023 22.4395 128.82 23.7695 130.578 23.8164C132.852 23.8867 134.17 22.041 134.533 18.2793L134.604 16.6797C134.627 15.625 134.428 14.7871 134.006 14.166C133.596 13.5332 132.986 13.2051 132.178 13.1816C131.111 13.1465 130.232 13.5859 129.541 14.5C128.861 15.4023 128.428 16.832 128.24 18.7891ZM152.34 8.62891C154.039 8.65234 155.51 9.08008 156.752 9.91211C157.994 10.7324 158.902 11.8809 159.477 13.3574C160.062 14.834 160.273 16.4746 160.109 18.2793L160.074 18.666C159.746 21.584 158.662 23.9395 156.822 25.7324C154.982 27.5254 152.709 28.3984 150.002 28.3516C148.314 28.3281 146.855 27.9121 145.625 27.1035C144.395 26.2832 143.48 25.1406 142.883 23.6758C142.297 22.2109 142.086 20.582 142.25 18.7891C142.543 15.6719 143.609 13.1875 145.449 11.3359C147.301 9.48438 149.598 8.58203 152.34 8.62891ZM148.033 18.7891L147.98 19.8262C147.816 22.4395 148.613 23.7695 150.371 23.8164C152.645 23.8867 153.963 22.041 154.326 18.2793L154.396 16.6797C154.42 15.625 154.221 14.7871 153.799 14.166C153.389 13.5332 152.779 13.2051 151.971 13.1816C150.904 13.1465 150.025 13.5859 149.334 14.5C148.654 15.4023 148.221 16.832 148.033 18.7891ZM169.865 20.9863L167.756 22.8145L166.859 28H161.076L165.77 0.982422H171.553L168.881 15.3965L169.584 14.5527L174.84 8.98047H182.17L174.084 17.0664L178.988 28H172.643L169.865 20.9863Z" fill="white"/>
</svg>
